PathFileType	4	(X/Y/Z)	H:\MAC\Cortex8\Teaching\Biomec1_N_2\Trimmed_walk2.trc
DataRate	CameraRate	NumFrames	NumMarkers	Units	OrigDataRate	OrigDataStartFrame	OrigNumFrames
150.00	150.00	       10	28	mm	150.00	139	       184
Frame#	Time	R.ASIS			L.ASIS			R.PSIS			L.PSIS			L.Iliac.Crest			R.Iliac.Crest			R.GTR			R.Knee			R.HF			R.TT			R.Ankle			R.Heel			R.MT1			R.MT5			L.GTR			L.Knee			L.HF			L.TT			L.Ankle			L.Heel			L.MT1			L.MT5			R.Knee.Medial			R.Ankle.Medial			R.MT2			L.Knee.Medial			L.Ankle.Medial			L.MT2			V_Mid_ASIS			V_Mid_PSIS			V_Pelvis_Origin			V_R.Hip_JC			V_R.Knee_JC_Static			V_R.TT			V_R.Ankle_JC_Static			V_L.Hip_JC			V_Mid_Hip			V_R.MT2_Static			V_R.Knee.Medial			V_R.Ankle.Medial			V_R.TT			V_L.Knee_JC_Static			V_L.TT			V_L.Ankle_JC_Static			V_L.MT2_Static			V_R.Knee_JC			V_R.Ankle_JC			V_L.Knee_JC			V_L.Ankle_JC			V_R.TT_KJC_Static			V_L.TT_KJC_Static			V_R.TT_KJC			V_L.TT_KJC			V_R.MT2			V_L.MT2			
		X1	Y1	Z1	X2	Y2	Z2	X3	Y3	Z3	X4	Y4	Z4	X5	Y5	Z5	X6	Y6	Z6	X7	Y7	Z7	X8	Y8	Z8	X9	Y9	Z9	X10	Y10	Z10	X11	Y11	Z11	X12	Y12	Z12	X13	Y13	Z13	X14	Y14	Z14	X15	Y15	Z15	X16	Y16	Z16	X17	Y17	Z17	X18	Y18	Z18	X19	Y19	Z19	X20	Y20	Z20	X21	Y21	Z21	X22	Y22	Z22	X23	Y23	Z23	X24	Y24	Z24	X25	Y25	Z25	X26	Y26	Z26	X27	Y27	Z27	X28	Y28	Z28	

139	0.920	1548.21313	1000.46899	-287.44586	1539.26538	990.37897	-540.51843	1340.04150	1012.78101	-354.12784	1331.81592	1003.77954	-431.59601	1444.45435	1052.92847	-580.86493	1477.36682	1049.56079	-247.57556	1473.21057	917.19934	-218.49239	1415.14270	500.55154	-276.86166	1422.31177	434.09317	-284.81940	1476.21521	425.33963	-343.74692	1370.99866	81.91103	-341.50208	1306.89624	53.45754	-395.14215	1531.84985	49.25394	-387.76813	1501.37195	50.20382	-304.67270	1491.00549	906.76215	-613.44440	1615.03967	538.70123	-600.81372	1613.91272	477.67551	-605.53723	1667.12622	455.26450	-548.04321	1437.91797	156.54817	-570.13458	1370.07190	144.60172	-511.38974	1581.55664	79.86189	-512.90973	1554.53723	80.23658	-600.05493	1420.09863	491.94424	-415.67184	1407.22449	93.57427	-428.36029	1528.49500	60.11937	-350.93726	1619.21533	520.33270	-467.47400	1482.34131	163.76727	-484.86011	1578.61011	90.93184	-548.46814																																																																																		
140	0.927	1554.62634	999.59302	-286.97562	1546.65894	990.17743	-540.19733	1346.71460	1012.46973	-354.66626	1338.73438	1003.36615	-432.04062	1451.89392	1052.76709	-580.81616	1483.71143	1048.76611	-247.38518	1478.97034	916.58795	-218.45311	1417.14587	500.53204	-276.83478	1423.87366	433.99155	-284.79443	1477.35254	424.83075	-342.88733	1371.09045	82.04476	-341.69427	1307.02319	53.62770	-395.24387	1531.95300	49.20469	-387.66953	1502.25488	50.06221	-304.76999	1499.17749	907.13898	-613.72003	1625.17590	538.97668	-600.15460	1625.57007	477.82431	-604.86536	1678.98413	456.81226	-547.27460	1461.86963	149.76950	-570.25848	1394.06970	135.03352	-511.94052	1608.54431	78.84863	-512.94385	1581.24280	78.27531	-600.77112	1422.81531	491.71259	-415.68784	1407.62646	93.44390	-428.55054	1528.65051	59.96209	-350.87036	1629.26184	520.30212	-466.36597	1505.59631	158.49973	-485.31998	1604.90796	89.81323	-549.22131																																																																																		
141	0.933	1561.13818	998.71790	-286.59003	1554.04822	989.95819	-539.93811	1353.53125	1012.04297	-355.10110	1345.82263	1002.86285	-432.49936	1459.51331	1052.57666	-580.80902	1490.05566	1048.00562	-247.19115	1484.72107	915.97491	-218.05991	1419.21838	500.52188	-276.85443	1425.39563	433.81219	-285.01599	1479.11768	424.30811	-342.41281	1371.45166	81.92743	-342.31354	1307.13953	53.79738	-395.34122	1531.19934	49.10220	-387.73245	1501.42834	50.52397	-304.31094	1507.18640	907.38379	-614.06293	1634.95752	539.09784	-599.47034	1636.96033	477.72498	-603.94843	1690.69983	458.24664	-546.63550	1485.72400	143.21599	-571.11639	1418.65417	125.62881	-512.56384	1635.25562	78.17655	-513.72687	1608.01294	76.68926	-601.53333	1425.71521	491.42096	-415.63235	1407.73035	93.22617	-428.85593	1529.23975	60.00893	-350.86584	1639.17761	520.09497	-465.29953	1529.22339	153.49434	-485.78952	1631.19250	88.93365	-550.01898																																																																																		
142	0.940	1567.68225	997.81091	-286.29486	1561.60693	989.70233	-539.74524	1360.33899	1011.63080	-355.46317	1352.92114	1002.31757	-432.94528	1467.17334	1052.35400	-580.77209	1496.45337	1047.26208	-247.05556	1490.70020	915.31726	-217.96361	1421.37354	500.52710	-276.89282	1427.27246	433.77539	-284.86295	1481.09204	423.75208	-341.89166	1371.57141	82.06892	-342.52817	1307.28015	53.99069	-395.40497	1531.36145	49.08520	-387.65329	1501.50610	50.44814	-304.25967	1515.22302	907.52472	-614.34589	1644.28125	538.99127	-598.82697	1647.89819	477.54321	-603.17908	1702.10681	459.62155	-546.08478	1510.31506	137.07338	-571.30835	1443.64453	116.59282	-513.25995	1661.93677	77.86029	-514.47308	1634.71606	75.53957	-602.34131	1428.69617	491.11005	-415.62473	1407.95032	93.16133	-429.01645	1529.37341	59.88919	-350.67392	1648.97449	519.74554	-464.17477	1552.89819	148.75711	-486.42279	1657.47693	88.58213	-550.83997																																																																																		
143	0.947	1574.29565	996.91492	-286.01779	1569.14514	989.34369	-539.53772	1367.29761	1010.91064	-355.79187	1360.11218	1001.66089	-433.34311	1474.93359	1052.10071	-580.75543	1502.85730	1046.46887	-246.96764	1496.73914	914.67395	-217.97018	1423.57410	500.53494	-276.99017	1429.13110	433.71298	-284.94638	1482.73206	423.21359	-342.14224	1371.67334	82.23695	-342.76672	1307.42432	54.18446	-395.51743	1532.78601	49.49520	-387.41348	1501.58301	50.35278	-304.21078	1523.03809	907.45801	-614.69965	1653.26184	538.68024	-598.05139	1658.62915	477.28879	-602.58826	1713.21509	460.76801	-545.56232	1534.57007	131.24872	-572.07373	1468.72668	107.98436	-514.11456	1688.48547	77.96288	-515.27289	1661.40503	74.80878	-603.18311	1431.61755	490.82800	-415.67374	1408.17419	93.08465	-429.20010	1529.52112	59.70994	-350.60153	1658.72632	519.29449	-463.10199	1576.68616	144.34914	-486.96909	1683.49805	88.55510	-551.62524																																																																																		
144	0.953	1581.01074	995.94495	-285.76294	1576.72522	988.95844	-539.40210	1374.13660	1010.60687	-356.37195	1367.28247	1001.11835	-433.73224	1482.73511	1051.79663	-580.77106	1509.33789	1045.69714	-246.86885	1502.80078	913.99237	-218.02347	1425.91357	500.53366	-277.16486	1430.95984	433.58578	-285.31052	1484.81445	422.75235	-342.06845	1371.79126	82.42905	-343.01901	1307.58667	54.42041	-395.64597	1532.88708	49.42823	-387.35812	1501.67383	50.25666	-304.17703	1530.77893	907.15503	-615.05798	1662.01770	538.17993	-597.24908	1669.12585	476.82922	-601.71606	1724.22095	461.85181	-545.02045	1559.02832	125.73599	-572.69086	1494.36841	99.67486	-514.88940	1714.84009	78.49997	-516.05450	1687.98132	74.50755	-604.04779	1434.70862	490.40695	-415.52991	1408.43726	93.00883	-429.39136	1529.65198	59.51958	-350.53680	1668.36255	518.72290	-461.99835	1600.45544	140.21251	-487.54892	1709.56592	89.00271	-552.36761																																																																																		
145	0.960	1587.72205	994.96118	-285.53806	1584.40271	988.51611	-539.26520	1381.30640	1009.86853	-356.66379	1374.64758	1000.53284	-434.16086	1490.54590	1051.39905	-580.73499	1515.92151	1044.93286	-246.81911	1508.95386	913.22241	-218.09804	1428.38831	500.54858	-277.35443	1433.09753	433.52173	-285.49310	1487.04553	422.23080	-342.08517	1371.78247	82.79781	-343.48520	1307.76733	54.69911	-395.78992	1532.98413	49.36867	-387.29599	1501.80652	49.76720	-304.45435	1538.37012	906.69800	-615.37012	1670.31921	537.50659	-596.50372	1679.27588	476.35117	-600.96783	1734.86108	462.75760	-544.44061	1583.52234	120.70206	-573.45306	1519.87439	91.81912	-515.64886	1741.17578	79.50549	-516.87738	1714.42957	74.69814	-604.90002	1437.51172	490.25299	-415.92429	1408.72058	92.93567	-429.58414	1529.80737	59.33882	-350.48193	1677.89978	518.07190	-460.88422	1624.30920	136.55820	-488.19208	1735.43091	89.88152	-553.18109																																																																																		
146	0.967	1594.52222	993.92871	-285.36435	1592.03564	987.97424	-539.18268	1388.38586	1009.32904	-357.06949	1381.94873	999.94446	-434.61008	1498.47314	1050.90784	-580.74072	1522.57690	1044.12219	-246.78404	1515.14514	912.49829	-218.24080	1431.05139	500.55261	-277.57123	1435.38257	433.44299	-285.74890	1489.42773	421.73389	-342.24619	1371.92529	83.03806	-343.73596	1307.96228	54.98957	-395.92377	1533.34290	49.24927	-387.25745	1501.97058	49.35789	-304.29816	1545.91919	906.02045	-615.64618	1678.32532	536.64789	-595.77081	1689.17993	475.70682	-600.15588	1745.24170	463.55270	-543.92920	1607.95850	116.24369	-574.20258	1545.54907	84.53028	-516.59326	1767.18311	80.94551	-517.73236	1740.76172	75.40865	-605.78271	1440.49353	490.03333	-416.20459	1409.03491	92.87459	-429.79395	1529.82166	58.96271	-350.58755	1687.12842	517.41357	-459.78317	1648.16956	133.29939	-488.86078	1761.11292	91.29003	-553.90863																																																																																		
147	0.973	1601.41589	992.83643	-285.15057	1599.75415	987.33917	-539.13892	1395.38867	1009.06287	-357.61981	1389.36841	999.24988	-434.98477	1506.37085	1050.34009	-580.74933	1529.31641	1043.27734	-246.80803	1521.47803	911.70087	-218.36604	1433.99854	500.53101	-277.81458	1437.89355	433.35852	-286.00308	1491.97437	421.22504	-342.49722	1372.10132	83.29993	-343.96643	1308.17261	55.30523	-396.05676	1533.47095	49.06167	-387.30429	1502.01929	49.56871	-304.38519	1553.38770	905.16937	-615.86163	1686.12183	535.55042	-594.91107	1698.71411	475.00534	-599.52655	1755.45508	464.28299	-543.34351	1632.26208	112.28454	-574.89734	1571.28345	77.88940	-517.40601	1793.05969	82.92987	-518.54254	1766.70300	76.66877	-606.66492	1443.74939	489.71881	-416.28140	1409.37256	92.81218	-429.99640	1529.74060	58.58829	-350.52780	1696.28650	516.62738	-458.67578	1672.09216	130.61380	-489.13940	1786.48730	93.14037	-554.75604																																																																																		
148	0.980	1608.35999	991.73187	-284.96204	1607.57861	986.61694	-539.03271	1402.66370	1008.37646	-358.02521	1396.65027	998.60205	-435.54703	1514.30908	1049.65271	-580.75006	1536.10388	1042.42004	-246.84598	1527.84094	910.88885	-218.47479	1437.17883	500.48505	-278.07443	1440.59448	433.25528	-286.26245	1494.65149	420.68295	-342.76801	1372.40039	83.46805	-344.05600	1308.39807	55.65311	-396.22659	1533.65479	49.26292	-386.92233	1502.15576	49.47610	-304.36627	1560.73840	904.15369	-616.01434	1693.70007	534.28931	-594.20874	1707.91223	474.15237	-598.75726	1765.38770	464.84000	-542.85950	1656.91016	108.37270	-574.94354	1597.23743	71.65228	-517.80841	1818.97791	85.69170	-519.60162	1792.40991	78.51917	-607.53912	1446.79089	489.65549	-416.86588	1409.73621	92.75497	-430.22198	1529.89319	58.40094	-350.47186	1705.32544	515.87457	-457.64554	1696.00623	127.90437	-489.91748	1811.54797	95.51134	-555.58038																																																																																		
